<svg width="16" height="16" viewBox="0 0 16 16" fill="none" xmlns="http://www.w3.org/2000/svg">
<path d="M7.08911 0.552822C7.32859 -0.184227 8.37132 -0.184227 8.6108 0.552822L9.91548 4.56823C10.0226 4.89784 10.3297 5.12101 10.6763 5.12101H14.8984C15.6734 5.12101 15.9956 6.1127 15.3686 6.56822L11.9529 9.04988C11.6725 9.2536 11.5552 9.61469 11.6623 9.94431L12.967 13.9597C13.2064 14.6968 12.3629 15.3097 11.7359 14.8541L8.32018 12.3725C8.03979 12.1688 7.66011 12.1688 7.37972 12.3725L3.96402 14.8541C3.33705 15.3097 2.49346 14.6968 2.73295 13.9597L4.03763 9.94431C4.14473 9.61469 4.0274 9.2536 3.74701 9.04988L0.331306 6.56822C-0.295665 6.1127 0.0265555 5.12101 0.801534 5.12101H5.02358C5.37016 5.12101 5.67732 4.89784 5.78442 4.56823L7.08911 0.552822Z" fill="#FFC71E"/>
</svg>
